<?xml version="1.0" encoding="UTF-8"?>
<svg width="24" height="24" viewBox="0 0 24 24" fill="none" xmlns="http://www.w3.org/2000/svg">
    <path d="M21 6H3C2.45 6 2 6.45 2 7V17C2 17.55 2.45 18 3 18H21C21.55 18 22 17.55 22 17V7C22 6.45 21.55 6 21 6ZM11 13H9V15H7V13H5V11H7V9H9V11H11V13ZM15.5 15C14.67 15 14 14.33 14 13.5C14 12.67 14.67 12 15.5 12C16.33 12 17 12.67 17 13.5C17 14.33 16.33 15 15.5 15ZM18.5 12C17.67 12 17 11.33 17 10.5C17 9.67 17.67 9 18.5 9C19.33 9 20 9.67 20 10.5C20 11.33 19.33 12 18.5 12Z" fill="#6C63FF"/>
</svg>
