<?xml version="1.0" encoding="UTF-8"?>
<svg width="200" height="200" viewBox="0 0 200 200" version="1.1" xmlns="http://www.w3.org/2000/svg">
    <!-- Body -->
    <ellipse cx="100" cy="110" rx="60" ry="70" fill="#9C27B0"/>
    
    <!-- Puzzle piece body pattern -->
    <path d="M70 80 Q80 70 90 80 Q100 90 110 80 Q120 70 130 80" 
          fill="none" stroke="#BA68C8" stroke-width="4"/>
    <path d="M70 100 Q80 90 90 100 Q100 110 110 100 Q120 90 130 100" 
          fill="none" stroke="#BA68C8" stroke-width="4"/>
    
    <!-- Eyes -->
    <g transform="translate(70,60)">
        <!-- Left eye - gear shape -->
        <circle cx="0" cy="0" r="15" fill="white"/>
        <path d="M0 -15 L4 -14 L7 -12 L9 -9 L10 -5 L10 5 L9 9 L7 12 L4 14 L0 15 L-4 14 L-7 12 L-9 9 L-10 5 L-10 -5 L-9 -9 L-7 -12 L-4 -14 Z" 
              fill="#9C27B0" transform="scale(0.6)"/>
    </g>
    <g transform="translate(130,60)">
        <!-- Right eye - gear shape -->
        <circle cx="0" cy="0" r="15" fill="white"/>
        <path d="M0 -15 L4 -14 L7 -12 L9 -9 L10 -5 L10 5 L9 9 L7 12 L4 14 L0 15 L-4 14 L-7 12 L-9 9 L-10 5 L-10 -5 L-9 -9 L-7 -12 L-4 -14 Z" 
              fill="#9C27B0" transform="scale(0.6)"/>
    </g>
    
    <!-- Thinking bubble -->
    <g transform="translate(140,40)">
        <circle cx="0" cy="0" r="8" fill="white"/>
        <circle cx="-12" cy="-8" r="6" fill="white"/>
        <circle cx="-20" cy="-15" r="4" fill="white"/>
    </g>
    
    <!-- Smile - slightly asymmetric for a thoughtful look -->
    <path d="M70 100 Q100 115 130 95" fill="none" stroke="#333" stroke-width="4" stroke-linecap="round"/>
    
    <!-- Logic circuit antenna -->
    <g transform="translate(85,20)">
        <path d="M0 0 Q15 -20 30 0" fill="none" stroke="#9C27B0" stroke-width="4"/>
        <!-- AND gate symbol -->
        <g transform="translate(0,-5)">
            <circle cx="0" cy="0" r="10" fill="#E1BEE7"/>
            <path d="M-5 -3 L0 3 L5 -3" fill="none" stroke="#333" stroke-width="2"/>
        </g>
        <!-- OR gate symbol -->
        <g transform="translate(30,-5)">
            <circle cx="0" cy="0" r="10" fill="#E1BEE7"/>
            <path d="M-5 3 L0 -3 L5 3" fill="none" stroke="#333" stroke-width="2"/>
        </g>
    </g>
</svg>
